<svg width="14" height="14" viewBox="0 0 14 14" fill="none" xmlns="http://www.w3.org/2000/svg">
<path d="M3.55648 13.7762L3.09471 13.3176C2.9505 13.1733 2.87105 12.9813 2.87105 12.7761C2.87105 12.571 2.9505 12.3787 3.09471 12.2344L8.3262 7.00313L3.0889 1.76584C2.94469 1.62174 2.86536 1.42949 2.86536 1.22438C2.86536 1.01928 2.94469 0.826917 3.0889 0.682705L3.54783 0.224002C3.84627 -0.0746673 4.33241 -0.0746673 4.63085 0.224002L10.8889 6.45963C11.033 6.60373 11.1345 6.79575 11.1345 7.00267L11.1345 7.00506C11.1345 7.21029 11.0329 7.4023 10.8889 7.5464L4.64781 13.7762C4.50371 13.9206 4.30589 13.9998 4.10078 14C3.89556 14 3.70047 13.9206 3.55648 13.7762Z" fill="white"/>
</svg>
