<svg width="14" height="14" viewBox="0 0 14 14" fill="none" xmlns="http://www.w3.org/2000/svg">
<path d="M10.4435 13.7762L10.9052 13.3176C11.0494 13.1733 11.1289 12.9813 11.1289 12.7761C11.1289 12.571 11.0494 12.3787 10.9052 12.2344L5.67374 7.00313L10.911 1.76584C11.0552 1.62174 11.1346 1.42949 11.1346 1.22438C11.1346 1.01928 11.0552 0.826917 10.911 0.682705L10.4521 0.224002C10.1537 -0.0746673 9.66753 -0.0746673 9.36909 0.224002L3.11104 6.45963C2.96694 6.60373 2.86541 6.79575 2.86541 7.00267L2.86541 7.00506C2.86541 7.21029 2.96705 7.4023 3.11104 7.5464L9.35213 13.7762C9.49623 13.9206 9.69405 13.9998 9.89916 14C10.1044 14 10.2995 13.9206 10.4435 13.7762Z" fill="white"/>
</svg>
